<?xml version="1.0" encoding="UTF-8"?>
<svg width="600" height="500" viewBox="0 0 600 500" fill="none" xmlns="http://www.w3.org/2000/svg">
  <!-- Background -->
  <rect width="600" height="500" fill="#F9FAFB"/>
  
  <!-- Laptop -->
  <rect x="150" y="150" width="300" height="200" rx="10" fill="#4F46E5"/>
  <rect x="170" y="170" width="260" height="160" fill="white"/>
  
  <!-- Resume on Screen -->
  <rect x="190" y="190" width="100" height="10" rx="2" fill="#4F46E5"/>
  <rect x="190" y="210" width="220" height="5" rx="2" fill="#E5E7EB"/>
  <rect x="190" y="225" width="220" height="5" rx="2" fill="#E5E7EB"/>
  <rect x="190" y="240" width="220" height="5" rx="2" fill="#E5E7EB"/>
  <rect x="190" y="265" width="80" height="10" rx="2" fill="#4F46E5"/>
  <rect x="190" y="285" width="220" height="5" rx="2" fill="#E5E7EB"/>
  <rect x="190" y="300" width="220" height="5" rx="2" fill="#E5E7EB"/>
  
  <!-- Person -->
  <circle cx="450" cy="200" r="30" fill="#4F46E5"/>
  <path d="M435 230C435 220 445 215 450 215C455 215 465 220 465 230" stroke="#4F46E5" strokeWidth="4"/>
  
  <!-- Decorative Elements -->
  <circle cx="100" cy="100" r="20" fill="#E0E7FF"/>
  <circle cx="500" cy="400" r="30" fill="#E0E7FF"/>
  <circle cx="150" cy="450" r="15" fill="#E0E7FF"/>
  <circle cx="550" cy="150" r="25" fill="#E0E7FF"/>
  
  <!-- Abstract Shapes -->
  <path d="M50 300Q100 250 150 300T250 300" stroke="#4F46E5" strokeWidth="2" fill="none"/>
  <path d="M350 400Q400 350 450 400T550 400" stroke="#4F46E5" strokeWidth="2" fill="none"/>
</svg> 